
nColumns=19
nRows=51
DataType=double
version=3
OpenSimVersion=4.4-2022-10-11-798caa840
endheader
time	ground_force_calcn_r_vx	ground_force_calcn_r_vy	ground_force_calcn_r_vz	ground_force_calcn_r_px	ground_force_calcn_r_py	ground_force_calcn_r_pz	ground_force_calcn_r_mx	ground_force_calcn_r_my	ground_force_calcn_r_mz	ground_force_calcn_l_vx	ground_force_calcn_l_vy	ground_force_calcn_l_vz	ground_force_calcn_l_px	ground_force_calcn_l_py	ground_force_calcn_l_pz	ground_force_calcn_l_mx	ground_force_calcn_l_my	ground_force_calcn_l_mz
1.41	-42.5538	65.596	0.475923	-0.0849536	0	-0.416705	-0.0155422	0.0239581	0.000173825	-24.0218	40.6216	4.14334	-0.0694596	0	-0.738843	0.168746	-0.285355	-0.0291058
1.42	-335.32	502.178	-40.6991	-0.108916	0	-0.424456	-1.66275	2.49015	-0.201815	-202.057	339.704	30.7325	-0.127737	0	-0.752798	0.646118	-1.08627	-0.0982732
1.43	-537.7	942.069	-118.437	-0.118717	0	-0.424513	-4.28723	7.51137	-0.944333	-318.053	651.004	70.8509	-0.145522	0	-0.752297	1.17897	-2.41317	-0.262633
1.44	-358.326	1136.37	-178.015	-0.139832	0	-0.421022	-4.24347	13.4575	-2.10815	-177.006	794.921	79.9853	-0.166535	0	-0.7519980000000001	0.514921	-2.31247	-0.232682
1.45	-289.578	1733.61	-224.681	-0.187646	0	-0.426811	-1.74867	10.4687	-1.35677	-148.787	954.224	80.4492	-0.179555	0	-0.751314	-0.00087908	0.00563786	0.000475319
1.46	-177.565	2542.56	-118.3	-0.228326	0	-0.440653	0.228778	-3.27587	0.15242	-232.033	1044.58	88.25449999999999	-0.186126	0	-0.749926	-0.916523	4.12606	0.348603
1.47	-243.774	2241.58	-1.97587	-0.228642	0	-0.44626	1.20269	-11.0591	0.00974821	-253.87	992.17	69.9984	-0.190995	0	-0.74694	-1.78831	6.98904	0.493082
1.48	-449.522	1435.76	-63.6039	-0.196448	0	-0.440243	2.01463	-6.43468	0.285054	-240.331	889.49	65.6906	-0.192818	0	-0.744192	-1.63375	6.04668	0.446559
1.49	-464.666	1091.68	-101.566	-0.168476	0	-0.436545	-0.537528	1.26286	-0.117492	-230.055	829.73	77.8563	-0.190848	0	-0.742719	-0.964548	3.47879	0.326427
1.5	-356.663	1143.95	-97.3695	-0.175283	0	-0.439759	-1.61215	5.17073	-0.440118	-207.415	784.675	75.7962	-0.186561	0	-0.741218	-0.525524	1.98812	0.192044
1.51	-299.447	1245.92	-81.5138	-0.183741	0	-0.443099	-1.2197	5.07484	-0.332019	-187.369	735.14	69.2526	-0.181526	0	-0.739603	-0.450126	1.76606	0.166369
1.52	-276.04	1242	-59.271	-0.184439	0	-0.445745	-0.90402	4.0675	-0.19411	-176.866	691.866	61.5709	-0.177573	0	-0.7375699999999999	-0.65831	2.57519	0.229172
1.53	-234.44	1206.82	-56.449	-0.186268	0	-0.447521	-0.919304	4.73228	-0.221352	-163.933	661.574	54.5586	-0.176848	0	-0.735139	-0.9440499999999999	3.80984	0.314189
1.54	-188.048	1175.8	-62.7637	-0.190828	0	-0.448511	-0.967107	6.04699	-0.322785	-144.413	643.174	51.0483	-0.179946	0	-0.733007	-1.07621	4.79315	0.380429
1.55	-164.247	1105.16	-57.0072	-0.192922	0	-0.449139	-0.9846	6.62499	-0.341737	-121.456	627.08	50.1427	-0.185378	0	-0.73141	-0.983782	5.07927	0.406149
1.56	-156.731	1007.07	-48.3313	-0.192382	0	-0.449343	-1.07914	6.934	-0.332776	-98.1516	602.481	51.022	-0.191456	0	-0.730243	-0.759308	4.66084	0.39471
1.57	-142.34	932.181	-46.6172	-0.193561	0	-0.449125	-1.15537	7.56646	-0.378389	-79.51349999999999	565.249	52.2243	-0.19679	0	-0.729509	-0.559783	3.97941	0.367665
1.58	-119.803	879.279	-51.4593	-0.196814	0	-0.448424	-1.15766	8.49654	-0.497255	-71.9774	521.918	53.0312	-0.200266	0	-0.7292689999999999	-0.488029	3.53877	0.359568
1.59	-101.517	838.284	-58.894	-0.20132	0	-0.447694	-1.13576	9.37865	-0.658902	-73.85760000000001	483.361	53.5327	-0.202697	0	-0.729335	-0.529189	3.46327	0.383561
1.6	-82.13030000000001	817.1609999999999	-62.6076	-0.208379	0	-0.447602	-0.98308	9.781219999999999	-0.749398	-72.8111	452.997	52.0658	-0.206448	0	-0.728887	-0.574664	3.57529	0.410931
1.61	-59.2798	799.062	-59.8132	-0.216425	0	-0.448322	-0.711463	9.590170000000001	-0.717865	-64.1123	431.8	48.0827	-0.212527	0	-0.727726	-0.569395	3.83491	0.427033
1.62	-41.5334	765.607	-54.2802	-0.222847	0	-0.449331	-0.497125	9.16375	-0.649695	-52.2883	414.137	43.1309	-0.219309	0	-0.72633	-0.525438	4.1616	0.433416
1.63	-31.2452	715.878	-49.1901	-0.226865	0	-0.450116	-0.380596	8.72007	-0.599181	-42.8241	390.95	37.9803	-0.224571	0	-0.7252690000000001	-0.485754	4.43455	0.430812
1.64	-25.2934	656.77	-44.3584	-0.228553	0	-0.450674	-0.320604	8.32483	-0.562261	-38.0451	360.33	32.9242	-0.227784	0	-0.724635	-0.486898	4.61148	0.421362
1.65	-21.0692	594.829	-40.7996	-0.228586	0	-0.45075	-0.284632	8.03579	-0.551179	-36.2745	324.498	28.2362	-0.229796	0	-0.724136	-0.5233950000000001	4.68209	0.407412
1.66	-14.9027	535.604	-38.4246	-0.228457	0	-0.450428	-0.218968	7.8697	-0.564578	-33.906	287.933	23.7833	-0.232431	0	-0.723459	-0.553305	4.69872	0.388115
1.67	-5.4091	487.296	-35.3292	-0.228717	0	-0.449768	-0.0877662	7.90669	-0.5732390000000001	-28.3397	258.033	19.6296	-0.236099	0	-0.722168	-0.509836	4.64205	0.353139
1.68	4.37106	449.742	-32.5791	-0.228864	0	-0.448702	0.0784193	8.068619999999999	-0.584488	-20.6516	237.875	16.4104	-0.239335	0	-0.720819	-0.387403	4.46228	0.307843
1.69	11.7863	419.407	-30.6703	-0.228257	0	-0.447375	0.227612	8.09942	-0.592293	-13.9441	225.594	14.8281	-0.240344	0	-0.720656	-0.255907	4.14018	0.272131
1.7	15.6333	398.12	-29.255	-0.227386	0	-0.446333	0.308909	7.86669	-0.578067	-10.8499	215.938	14.9155	-0.238634	0	-0.72175	-0.188331	3.74823	0.258902
1.71	16.9095	383.382	-27.738	-0.227307	0	-0.445875	0.324273	7.35211	-0.531932	-11.8522	203.387	15.7122	-0.236262	0	-0.7232229999999999	-0.199847	3.42943	0.264932
1.72	18.0104	375.382	-26.0635	-0.228657	0	-0.445882	0.316545	6.59759	-0.458084	-13.2834	190.297	15.4606	-0.236158	0	-0.723669	-0.228522	3.27379	0.265978
1.73	19.9311	372.922	-23.6688	-0.231707	0	-0.446342	0.306222	5.72958	-0.363649	-11.6344	184.274	14.1295	-0.23959	0	-0.722785	-0.209729	3.32184	0.254707
1.74	23.3828	371.949	-20.0303	-0.235771	0	-0.447109	0.310451	4.93833	-0.265941	-7.59084	187.99	12.9213	-0.246574	0	-0.720837	-0.13834	3.42604	0.235485
1.75	26.5923	374.315	-16.9064	-0.239671	0	-0.447947	0.301922	4.24988	-0.191951	-3.23075	200.602	12.7579	-0.253512	0	-0.719485	-0.0569899	3.53858	0.225047
1.76	27.9322	378.922	-15.3903	-0.242952	0	-0.448834	0.263246	3.57114	-0.145045	0.0262144	218.098	13.7718	-0.257734	0	-0.719043	0.000432221	3.59599	0.22707
1.77	28.7089	386.606	-15.5107	-0.245542	0	-0.449562	0.215058	2.89606	-0.11619	2.29948	235.524	14.9899	-0.259546	0	-0.7186630000000001	0.0352113	3.60652	0.229537
1.78	29.02	400.053	-17.2721	-0.247844	0	-0.450278	0.155778	2.14747	-0.0927158	3.39943	249.198	15.3727	-0.259924	0	-0.717961	0.0502366	3.68264	0.227177
1.79	29.0678	415.467	-19.3107	-0.250422	0	-0.451244	0.09914439999999999	1.41708	-0.0658648	3.2607	259.7	15.0057	-0.260238	0	-0.717305	0.0499596	3.97906	0.229913
1.8	30.7217	431.444	-20.9275	-0.252887	0	-0.452517	0.058368	0.819698	-0.03976	4.56226	272.986	14.1019	-0.260536	0	-0.716594	0.0731907	4.37943	0.226232
1.81	33.2041	447.35	-22.332	-0.254886	0	-0.453591	0.0272485	0.367112	-0.0183264	7.4137	293.464	13.264	-0.260757	0	-0.715823	0.121249	4.79953	0.216929
1.82	35.4109	461.209	-23.0857	-0.256478	0	-0.454672	0.00246598	0.0321182	-0.00160767	10.3255	322.104	12.7842	-0.26005	0	-0.715198	0.16715	5.21423	0.206952
1.83	37.7081	471.878	-22.2263	-0.257331	0	-0.456028	-0.0228747	-0.286254	0.013483	12.7838	358.273	12.5047	-0.257968	0	-0.7152269999999999	0.20024	5.61184	0.195869
1.84	38.9068	478.371	-20.2898	-0.257406	0	-0.457372	-0.0466118	-0.573106	0.0243079	13.0846	398.694	13.923	-0.255154	0	-0.716097	0.195247	5.94928	0.207758
1.85	39.2664	482.872	-18.2913	-0.256775	0	-0.458637	-0.0708835	-0.871679	0.0330195	13.7388	445.203	16.9149	-0.252176	0	-0.717494	0.192799	6.2476	0.23737
1.86	39.9398	491.04	-16.6017	-0.255725	0	-0.459783	-0.105899	-1.30198	0.0440187	15.3218	501.392	21.7515	-0.248595	0	-0.719465	0.196026	6.41478	0.278288
1.87	41.2586	506.001	-14.4716	-0.254907	0	-0.460765	-0.148836	-1.82535	0.0522048	16.0239	557.876	29.0772	-0.245076	0	-0.72165	0.183715	6.3961	0.333373
1.88	43.9246	526.177	-11.0496	-0.254124	0	-0.461956	-0.204907	-2.4546	0.051546	19.1952	609.191	35.2189	-0.241774	0	-0.723441	0.198902	6.31248	0.364941
1.89	46.4279	549.072	-6.95567	-0.252867	0	-0.463148	-0.260741	-3.08361	0.0390633	21.7464	656.198	40.1357	-0.237777	0	-0.725181	0.207844	6.27169	0.383602
1.9	47.3784	571.648	-3.96402	-0.250999	0	-0.464181	-0.296619	-3.57888	0.0248173	20.8472	697.419	45.2226	-0.232558	0	-0.727	0.186674	6.24495	0.40494
1.91	48.501	597.747	-2.95677	-0.248538	0	-0.465	-0.316195	-3.89693	0.0192762	18.2003	733.894	50.392	-0.226267	0	-0.728808	0.153525	6.19065	0.425074
